# xmcd CD database file
#
# Track frame offsets:
#	150
#	19720
#	38792
#	59275
#	86712
#	104575
#	127412
#	146162
#	166372
#	190435
#
# Disc length: 2790 seconds
#
# Revision: 0
# Processed by: cddbd v1.5PL3 Copyright (c) Steve Scherf et al.
# Submitted via: CDex 1.51
#
DISCID=950ae40a
DTITLE=八神 純子 - ヤガマニア
DYEAR=1986
DGENRE=JPop
TTITLE0=ルーザー
TTITLE1=ダイナマイト ラブ
TTITLE2=FUN CITY
TTITLE3=消えたサイゴンの娘
TTITLE4=哀愁パラダイス
TTITLE5=ボクサー
TTITLE6=カメレオン
TTITLE7=金色のサプライズ
TTITLE8=コスモスの夜(西暦2000年に向けてPART?)
TTITLE9=BROTHER and SISTER
EXTD=YEAR: 1986
EXTT0=
EXTT1=
EXTT2=
EXTT3=
EXTT4=
EXTT5=
EXTT6=
EXTT7=
EXTT8=
EXTT9=
PLAYORDER=
